<svg xmlns="http://www.w3.org/2000/svg" width="65" height="32" viewBox="0 0 65 32">
  <path fill="#0E0E0E" d="M26.3799992,16.6885723 C27.3100884,15.8217685 28.5136104,15.3 29.8799992,15.3 C30.3227123,15.3 30.7542609,15.3547107 31.1697679,15.4624283 C31.7043798,15.601023 32.0254151,16.1467649 31.8868204,16.6813769 C31.7482256,17.2159888 31.2024837,17.5370241 30.6678718,17.3984294 C30.4167539,17.3333286 30.1538633,17.3 29.8799992,17.3 C27.894567,17.3 26.3799992,19.1751796 26.3799992,21.6000011 L26.3799992,26.5800007 C26.3799992,27.1322854 25.9322839,27.5800007 25.3799992,27.5800007 C24.8277144,27.5800007 24.3799992,27.1322854 24.3799992,26.5800007 L24.3799992,16.5999992 C24.3799992,16.0477145 24.8277144,15.5999992 25.3799992,15.5999992 C25.9322839,15.5999992 26.3799992,16.0477145 26.3799992,16.5999992 L26.3799992,16.6885723 Z M37.579998,27.9000004 C34.3846609,27.9000004 32.079998,25.0466074 32.079998,21.6000002 C32.079998,18.153393 34.3846609,15.3 37.579998,15.3 C40.7753351,15.3 43.079998,18.153393 43.079998,21.6000002 C43.079998,25.0466074 40.7753351,27.9000004 37.579998,27.9000004 Z M37.579998,25.9000004 C39.5654324,25.9000004 41.079998,24.0248234 41.079998,21.6000002 C41.079998,19.175177 39.5654324,17.3 37.579998,17.3 C35.5945636,17.3 34.079998,19.175177 34.079998,21.6000002 C34.079998,24.0248234 35.5945636,25.9000004 37.579998,25.9000004 Z M49.8000011,27.9000004 C46.604664,27.9000004 44.3000011,25.0466074 44.3000011,21.6000002 C44.3000011,18.153393 46.604664,15.3 49.8000011,15.3 C52.9953383,15.3 55.3000011,18.153393 55.3000011,21.6000002 C55.3000011,25.0466074 52.9953383,27.9000004 49.8000011,27.9000004 Z M49.8000011,25.9000004 C51.7854356,25.9000004 53.3000011,24.0248234 53.3000011,21.6000002 C53.3000011,19.175177 51.7854356,17.3 49.8000011,17.3 C47.8145667,17.3 46.3000011,19.175177 46.3000011,21.6000002 C46.3000011,24.0248234 47.8145667,25.9000004 49.8000011,25.9000004 Z M58.779995,19.0034201 L58.779995,19.3 L61.5799942,19.3 C62.132279,19.3 62.5799942,19.7477153 62.5799942,20.3 C62.5799942,20.8522847 62.132279,21.3 61.5799942,21.3 L58.779995,21.3 L58.779995,26.5799997 C58.779995,27.1322845 58.3322797,27.5799997 57.779995,27.5799997 C57.2277102,27.5799997 56.779995,27.1322845 56.779995,26.5799997 L56.779995,19.0000008 C56.779995,18.9987768 56.7799972,18.9975533 56.7800016,18.9963303 C56.7816371,15.5513696 59.0858002,12.6999996 62.2800007,12.6999996 C62.7227139,12.6999996 63.1542624,12.7547103 63.5697694,12.8624279 C64.1043813,13.0010227 64.4254167,13.5467645 64.2868219,14.0813765 C64.1482271,14.6159884 63.6024852,14.9370238 63.0678733,14.798429 C62.8167554,14.7333283 62.5538648,14.6999996 62.2800007,14.6999996 C60.2945685,14.6999996 58.7800007,16.5751793 58.7800007,19.0000008 C58.7800007,19.001141 58.7799988,19.0022808 58.779995,19.0034201 Z M17.7951587,29.6728222 C17.4754278,30.8659668 16.3875439,31.7253418 15.0000005,31.7253418 L8.63999987,31.7253407 C7.33604371,31.7253407 6.19151882,30.8659665 5.85094319,29.6728222 L4.66000032,29.6728222 C2.74000072,29.6728222 1,28.4453411 1,26.1253414 L1,5.08217035 C1,1.30534103 3.82464407,-0.453902687 7.14008299,0.602984181 L19.413372,4.51543087 C21.2254125,5.09306834 22.6392959,6.72534087 22.6392959,8.72534087 L22.6392959,26.1253414 C22.6392959,28.4453411 20.9000001,29.6728222 18.98,29.6728222 L17.7951587,29.6728222 Z M17.8911051,27.6516965 L18.9806818,27.6516965 C20.0800004,27.6516965 20.6154769,26.9253407 20.6154769,25.8253403 L20.6154769,8.92534068 C20.6154769,7.60534098 19.672366,6.70739189 18.7979566,6.44084515 L6.52466755,2.52839846 C4.51486664,1.88771944 3.02381904,2.67534115 3.02381904,5.08217035 L3.02381904,25.8253403 C3.02381904,26.9253407 3.55999994,27.6553402 4.65861413,27.6516965 L5.74819083,27.6516965 L5.74819083,13.4653406 C5.74819083,11.7053414 7.0800004,10.5812569 8.63999987,10.5812569 L15.0000005,10.5812569 C16.5599999,10.5853415 17.8911051,11.7053414 17.8911051,13.4653406 L17.8911051,27.6516965 Z M9.04000044,12.6023826 C8.19000006,12.6023826 7.77200988,13.0253411 7.77200988,13.9653406 L7.77200988,28.4353409 C7.77200988,29.0832562 8.19000006,29.704215 9.04000044,29.704215 L14.6000009,29.704215 C15.4499993,29.704215 15.867286,29.0832562 15.867286,28.4353409 L15.867286,13.9653406 C15.867286,13.0253411 15.4499993,12.6023826 14.6000009,12.6023826 L9.04000044,12.6023826 Z M13.3764318,22.0083904 C12.645612,22.0083904 12.0531655,21.4167324 12.0531655,20.6868852 C12.0531655,19.957038 12.645612,19.36538 13.3764318,19.36538 C14.1072516,19.36538 14.6996981,19.957038 14.6996981,20.6868852 C14.6996981,21.4167324 14.1072516,22.0083904 13.3764318,22.0083904 Z"/>
</svg>
